if (_typeface_js && _typeface_js.loadFace) _typeface_js.loadFace({"glyphs":{"S":{"x_min":0,"x_max":572.421875,"ha":736,"o":"m 147 1193 l 154 1193 q 409 1103 250 1193 l 409 1049 l 373 1049 q 154 1125 221 1125 q 70 1028 70 1125 q 217 718 70 887 q 358 630 286 655 q 543 371 479 564 q 572 206 572 280 l 572 176 q 475 -20 572 31 l 436 -27 q 48 366 282 -27 l 48 388 l 67 406 l 99 406 q 309 116 188 258 q 423 43 393 43 l 444 43 q 504 172 491 43 l 504 192 q 360 548 504 404 l 223 623 q 50 844 78 755 q 0 1030 0 950 q 98 1187 0 1143 l 147 1193 "},"T":{"x_min":0,"x_max":526.296875,"ha":916,"o":"m 37 1193 l 488 1193 l 526 1186 l 526 1154 q 482 1123 516 1123 l 298 1123 l 298 16 l 292 -27 l 235 -27 l 227 10 l 227 1123 l 37 1123 l 0 1130 l 0 1186 l 37 1193 "},"N":{"x_min":0,"x_max":531.734375,"ha":1054,"o":"m 6 1190 l 48 1190 q 375 400 70 1171 l 506 78 l 463 78 l 463 1152 l 471 1190 l 524 1190 l 531 1152 l 531 10 l 524 -27 l 472 -27 l 27 1082 l 70 1082 l 70 10 l 63 -27 l 6 -27 l 0 16 l 0 1146 l 6 1190 "},"K":{"x_min":0,"x_max":472.046875,"ha":937,"o":"m 7 1193 l 60 1193 l 67 1155 l 67 396 q 276 535 196 430 q 379 857 379 668 l 379 878 q 360 1070 379 954 l 413 1105 q 450 868 450 994 q 303 461 450 617 l 303 474 l 472 15 l 472 -21 l 439 -21 q 345 166 411 -21 l 246 428 l 267 428 q 67 323 170 347 l 67 10 l 60 -27 l 7 -27 l 0 10 l 0 1155 l 7 1193 "},"d":{"x_min":0,"x_max":656.515625,"ha":1030,"o":"m 126 1196 q 610 914 459 1196 q 656 708 656 807 l 656 691 q 266 82 656 353 q 37 -27 70 -27 l 7 -27 l 0 10 l 0 1144 q 80 1193 0 1193 l 126 1196 m 70 1124 l 70 46 l 42 46 q 271 168 124 72 q 588 699 588 407 q 343 1085 588 959 q 127 1125 243 1125 q 70 1124 78 1125 "},"Y":{"x_min":0,"x_max":554.78125,"ha":836,"o":"m 23 1190 l 48 1190 q 176 924 73 1190 q 270 660 293 632 l 485 1190 l 539 1190 l 539 1185 l 554 1185 q 61 -27 78 -11 l 15 -27 l 15 -21 l 0 -21 l 238 580 l 10 1155 l 23 1190 "},"E":{"x_min":0,"x_max":813.875,"ha":1039,"o":"m 97 1196 l 431 1196 l 469 1188 l 469 1133 l 431 1125 l 124 1125 l 124 618 l 388 618 l 427 579 l 385 550 l 124 550 l 124 43 l 775 43 l 813 35 l 813 -19 l 775 -27 l 97 -27 q 54 21 54 -27 l 54 550 l 37 550 l 0 558 l 0 611 l 37 618 l 54 618 l 54 1147 q 97 1196 54 1196 "},"j":{"x_min":0,"x_max":661.953125,"ha":972,"o":"m 417 1188 q 614 927 522 1188 q 661 610 661 765 q 302 18 661 174 q 31 -27 160 -27 l 0 -16 l 0 24 q 146 333 120 328 l 181 333 l 181 328 l 198 328 q 78 43 76 37 l 48 43 q 539 330 400 43 q 591 599 591 456 l 591 632 q 468 1077 591 884 q 421 1117 440 1115 l 415 1117 q 353 971 382 1117 l 293 971 l 293 976 l 284 976 q 417 1188 326 1188 "},"y":{"x_min":0,"x_max":554.78125,"ha":836,"o":"m 23 1190 l 48 1190 q 176 924 73 1190 q 270 660 293 632 l 485 1190 l 539 1190 l 539 1185 l 554 1185 q 61 -27 78 -11 l 15 -27 l 15 -21 l 0 -21 l 238 580 l 10 1155 l 23 1190 "},"Z":{"x_min":0,"x_max":588.703125,"ha":762,"o":"m 328 1196 l 556 1196 q 588 1155 588 1196 q 87 43 89 49 l 548 43 l 585 35 l 585 -19 l 548 -27 l 32 -27 q 0 14 0 -27 l 497 1125 l 328 1125 l 290 1133 l 290 1188 l 328 1196 "},"u":{"x_min":0,"x_max":474.75,"ha":1018,"o":"m 95 1193 l 106 1161 q 70 594 70 854 l 70 583 q 179 59 70 150 q 214 43 200 43 l 241 43 q 377 300 326 43 q 404 699 404 464 q 381 1161 404 947 l 392 1193 l 447 1193 q 474 699 474 938 q 327 12 474 151 q 225 -27 283 -27 q 5 432 35 -27 l 0 590 q 39 1176 0 845 l 56 1193 l 95 1193 "},"k":{"x_min":0,"x_max":472.046875,"ha":937,"o":"m 7 1193 l 60 1193 l 67 1155 l 67 396 q 276 535 196 430 q 379 857 379 668 l 379 878 q 360 1070 379 954 l 413 1105 q 450 868 450 994 q 303 461 450 617 l 303 474 l 472 15 l 472 -21 l 439 -21 q 345 166 411 -21 l 246 428 l 267 428 q 67 323 170 347 l 67 10 l 60 -27 l 7 -27 l 0 10 l 0 1155 l 7 1193 "},"g":{"x_min":0,"x_max":781.3125,"ha":1141,"o":"m 436 1193 q 764 678 661 1193 q 781 558 781 598 l 763 539 l 720 539 q 636 902 681 772 q 447 1123 545 1123 l 425 1123 q 170 872 303 1123 q 70 455 70 664 l 70 450 q 271 76 70 171 q 436 43 350 43 l 472 43 q 702 79 595 43 l 542 516 l 542 553 l 577 553 q 781 64 602 553 l 781 54 q 585 -15 781 20 q 453 -27 523 -27 q 16 303 105 -27 q 0 455 0 397 q 153 982 0 715 q 436 1193 291 1193 "},"t":{"x_min":0,"x_max":526.296875,"ha":916,"o":"m 37 1193 l 488 1193 l 526 1186 l 526 1154 q 482 1123 516 1123 l 298 1123 l 298 16 l 292 -27 l 235 -27 l 227 10 l 227 1123 l 37 1123 l 0 1130 l 0 1186 l 37 1193 "},"e":{"x_min":0,"x_max":813.875,"ha":1039,"o":"m 97 1196 l 431 1196 l 469 1188 l 469 1133 l 431 1125 l 124 1125 l 124 618 l 388 618 l 427 579 l 385 550 l 124 550 l 124 43 l 775 43 l 813 35 l 813 -19 l 775 -27 l 97 -27 q 54 21 54 -27 l 54 550 l 37 550 l 0 558 l 0 611 l 37 618 l 54 618 l 54 1147 q 97 1196 54 1196 "},"J":{"x_min":0,"x_max":661.953125,"ha":972,"o":"m 417 1188 q 614 927 522 1188 q 661 610 661 765 q 302 18 661 174 q 31 -27 160 -27 l 0 -16 l 0 24 q 146 333 120 328 l 181 333 l 181 328 l 198 328 q 78 43 76 37 l 48 43 q 539 330 400 43 q 591 599 591 456 l 591 632 q 468 1077 591 884 q 421 1117 440 1115 l 415 1117 q 353 971 382 1117 l 293 971 l 293 976 l 284 976 q 417 1188 326 1188 "},"W":{"x_min":0,"x_max":767.75,"ha":1377,"o":"m 10 1188 l 65 1188 l 214 94 l 172 94 q 355 1188 332 1074 l 383 1188 q 456 852 416 1188 l 561 97 l 517 97 l 699 1188 l 760 1188 l 760 1182 l 767 1182 l 568 -10 l 551 -27 l 537 -27 q 486 137 501 -27 l 359 1063 l 400 1063 q 206 -24 224 -24 l 204 -27 q 144 105 153 -27 l 0 1155 l 10 1188 "},"v":{"x_min":0,"x_max":416.421875,"ha":988,"o":"m 10 1188 l 65 1188 l 214 94 q 244 546 176 94 l 349 1171 l 366 1188 l 405 1188 l 416 1155 l 222 -18 l 191 -27 q 101 422 158 -27 l 0 1155 l 10 1188 "},"s":{"x_min":0,"x_max":572.421875,"ha":736,"o":"m 147 1193 l 154 1193 q 409 1103 250 1193 l 409 1049 l 373 1049 q 154 1125 221 1125 q 70 1028 70 1125 q 217 718 70 887 q 358 630 286 655 q 543 371 479 564 q 572 206 572 280 l 572 176 q 475 -20 572 31 l 436 -27 q 48 366 282 -27 l 48 388 l 67 406 l 99 406 q 309 116 188 258 q 423 43 393 43 l 444 43 q 504 172 491 43 l 504 192 q 360 548 504 404 l 223 623 q 50 844 78 755 q 0 1030 0 950 q 98 1187 0 1143 l 147 1193 "},"B":{"x_min":0,"x_max":694.5,"ha":931,"o":"m 111 1196 q 489 955 387 1196 q 507 843 507 893 q 459 651 507 752 q 694 249 694 430 q 337 -7 694 54 q 26 -27 205 -27 l 8 0 l 8 314 q 0 347 0 314 l 0 358 l 8 369 l 8 1136 l 0 1146 l 0 1181 q 111 1196 52 1196 m 78 1127 l 78 396 l 51 396 q 408 710 318 507 q 436 830 436 775 l 436 862 q 293 1085 436 997 q 119 1125 212 1125 l 67 1125 l 78 1127 m 78 331 l 78 43 l 81 43 q 611 194 520 43 q 623 241 623 223 l 623 268 q 409 602 623 400 l 429 602 q 78 331 299 419 "},"H":{"x_min":0,"x_max":604.296875,"ha":1071,"o":"m 7 1190 l 63 1190 l 70 1152 l 70 10 l 63 -27 l 7 -27 l 0 10 l 0 1152 l 7 1190 m 468 1190 l 524 1190 l 531 1152 l 531 615 l 564 615 l 604 576 l 561 548 l 531 548 l 531 10 l 524 -27 l 468 -27 l 461 10 l 461 548 l 97 548 l 59 555 l 59 608 l 97 615 l 461 615 l 461 1152 l 468 1190 "},"c":{"x_min":0,"x_max":781.984375,"ha":1141,"o":"m 436 1193 q 767 663 661 1193 l 781 573 l 771 539 l 746 539 q 692 695 714 539 q 600 983 649 878 q 444 1123 520 1123 l 420 1123 q 186 906 314 1123 q 67 455 67 674 q 271 75 67 170 q 442 43 345 43 l 472 43 q 756 92 581 43 l 781 68 q 550 -21 781 16 l 453 -27 q 33 240 142 -27 q 0 444 0 347 l 0 461 q 215 1069 0 784 q 436 1193 326 1193 "},"q":{"x_min":0,"x_max":846.421875,"ha":1284,"o":"m 428 1200 l 436 1200 q 781 563 684 1200 q 803 191 803 326 l 803 188 q 763 20 803 20 l 846 -213 l 846 -250 l 797 -250 q 688 18 773 -219 l 697 12 q 453 -23 562 -23 q 16 312 102 -23 q 0 459 0 396 q 178 1028 0 749 q 428 1200 306 1200 m 70 457 q 311 65 70 148 q 458 47 375 47 q 672 76 567 47 q 606 236 672 61 l 617 272 l 654 272 q 735 88 676 250 l 718 88 q 732 145 728 88 l 732 223 q 615 954 732 648 q 431 1132 534 1132 q 162 863 297 1132 q 70 457 70 662 "},"b":{"x_min":0,"x_max":694.5,"ha":931,"o":"m 111 1196 q 489 955 387 1196 q 507 843 507 893 q 459 651 507 752 q 694 249 694 430 q 337 -7 694 54 q 26 -27 205 -27 l 8 0 l 8 314 q 0 347 0 314 l 0 358 l 8 369 l 8 1136 l 0 1146 l 0 1181 q 111 1196 52 1196 m 78 1127 l 78 396 l 51 396 q 408 710 318 507 q 436 830 436 775 l 436 862 q 293 1085 436 997 q 119 1125 212 1125 l 67 1125 l 78 1127 m 78 331 l 78 43 l 81 43 q 611 194 520 43 q 623 241 623 223 l 623 268 q 409 602 623 400 l 429 602 q 78 331 299 419 "},"D":{"x_min":0,"x_max":656.515625,"ha":1030,"o":"m 126 1196 q 610 914 459 1196 q 656 708 656 807 l 656 691 q 266 82 656 353 q 37 -27 70 -27 l 7 -27 l 0 10 l 0 1144 q 80 1193 0 1193 l 126 1196 m 70 1124 l 70 46 l 42 46 q 271 168 124 72 q 588 699 588 407 q 343 1085 588 959 q 127 1125 243 1125 q 70 1124 78 1125 "},"I":{"x_min":0,"x_max":70.53125,"ha":446,"o":"m 7 1190 l 63 1190 l 70 1152 l 70 10 l 63 -27 l 7 -27 l 0 10 l 0 1152 l 7 1190 "},"G":{"x_min":0,"x_max":781.3125,"ha":1141,"o":"m 436 1193 q 764 678 661 1193 q 781 558 781 598 l 763 539 l 720 539 q 636 902 681 772 q 447 1123 545 1123 l 425 1123 q 170 872 303 1123 q 70 455 70 664 l 70 450 q 271 76 70 171 q 436 43 350 43 l 472 43 q 702 79 595 43 l 542 516 l 542 553 l 577 553 q 781 64 602 553 l 781 54 q 585 -15 781 20 q 453 -27 523 -27 q 16 303 105 -27 q 0 455 0 397 q 153 982 0 715 q 436 1193 291 1193 "},"z":{"x_min":0,"x_max":588.703125,"ha":762,"o":"m 328 1196 l 556 1196 q 588 1155 588 1196 q 87 43 89 49 l 548 43 l 585 35 l 585 -19 l 548 -27 l 32 -27 q 0 14 0 -27 l 497 1125 l 328 1125 l 290 1133 l 290 1188 l 328 1196 "},"U":{"x_min":0,"x_max":474.75,"ha":1018,"o":"m 95 1193 l 106 1161 q 70 594 70 854 l 70 583 q 179 59 70 150 q 214 43 200 43 l 241 43 q 377 300 326 43 q 404 699 404 464 q 381 1161 404 947 l 392 1193 l 447 1193 q 474 699 474 938 q 327 12 474 151 q 225 -27 283 -27 q 5 432 35 -27 l 0 590 q 39 1176 0 845 l 56 1193 l 95 1193 "},"w":{"x_min":0,"x_max":767.75,"ha":1377,"o":"m 10 1188 l 65 1188 l 214 94 l 172 94 q 355 1188 332 1074 l 383 1188 q 456 852 416 1188 l 561 97 l 517 97 l 699 1188 l 760 1188 l 760 1182 l 767 1182 l 568 -10 l 551 -27 l 537 -27 q 486 137 501 -27 l 359 1063 l 400 1063 q 206 -24 224 -24 l 204 -27 q 144 105 153 -27 l 0 1155 l 10 1188 "},"F":{"x_min":0,"x_max":484.921875,"ha":732,"o":"m 115 1193 l 446 1193 l 484 1186 l 484 1130 l 446 1123 l 143 1123 l 143 615 l 406 615 l 446 576 l 403 548 l 143 548 l 143 10 l 135 -27 l 80 -27 l 72 10 l 72 548 l 39 548 l 0 587 l 42 615 l 72 615 l 72 1150 q 115 1193 72 1193 "},"r":{"x_min":0,"x_max":523.59375,"ha":870,"o":"m 81 1193 q 365 985 298 1193 l 374 921 q 275 678 374 796 l 523 10 l 523 -27 l 475 -27 q 352 280 451 3 l 219 625 q 64 532 163 579 q 67 550 67 532 l 67 10 l 60 -27 l 21 -27 l 0 -6 l 0 1147 q 70 1193 0 1193 l 81 1193 m 67 1133 l 67 599 l 37 599 q 219 729 159 647 q 274 796 233 729 q 303 925 303 859 q 143 1118 303 1068 l 93 1123 l 57 1123 l 67 1133 "},"x":{"x_min":0,"x_max":554.78125,"ha":916,"o":"m 23 1190 l 58 1190 q 271 685 80 1171 q 263 642 293 631 l 485 1190 l 539 1190 l 539 1185 l 554 1185 q 314 575 315 586 l 314 580 l 543 8 l 531 -27 l 482 -27 q 286 510 263 530 l 69 -27 l 33 -27 l 31 -24 l 0 -24 l 238 583 l 10 1155 l 23 1190 "},"V":{"x_min":0,"x_max":416.421875,"ha":988,"o":"m 10 1188 l 65 1188 l 214 94 q 244 546 176 94 l 349 1171 l 366 1188 l 405 1188 l 416 1155 l 222 -18 l 191 -27 q 101 422 158 -27 l 0 1155 l 10 1188 "},"Q":{"x_min":0,"x_max":846.421875,"ha":1284,"o":"m 428 1200 l 436 1200 q 781 563 684 1200 q 803 191 803 326 l 803 188 q 763 20 803 20 l 846 -213 l 846 -250 l 797 -250 q 688 18 773 -219 l 697 12 q 453 -23 562 -23 q 16 312 102 -23 q 0 459 0 396 q 178 1028 0 749 q 428 1200 306 1200 m 70 457 q 311 65 70 148 q 458 47 375 47 q 672 76 567 47 q 606 236 672 61 l 617 272 l 654 272 q 735 88 676 250 l 718 88 q 732 145 728 88 l 732 223 q 615 954 732 648 q 431 1132 534 1132 q 162 863 297 1132 q 70 457 70 662 "},"h":{"x_min":0,"x_max":604.296875,"ha":1071,"o":"m 7 1190 l 63 1190 l 70 1152 l 70 10 l 63 -27 l 7 -27 l 0 10 l 0 1152 l 7 1190 m 468 1190 l 524 1190 l 531 1152 l 531 615 l 564 615 l 604 576 l 561 548 l 531 548 l 531 10 l 524 -27 l 468 -27 l 461 10 l 461 548 l 97 548 l 59 555 l 59 608 l 97 615 l 461 615 l 461 1152 l 468 1190 "},"M":{"x_min":0,"x_max":531.734375,"ha":1077,"o":"m 7 1190 l 62 1190 l 284 249 l 254 249 q 299 472 248 244 l 469 1190 l 524 1190 l 531 1152 l 531 10 l 524 -27 l 468 -27 l 461 10 l 461 1047 q 452 815 501 1047 l 293 146 l 263 146 q 141 563 235 146 l 25 1047 l 70 1047 l 70 10 l 63 -27 l 7 -27 l 0 10 l 0 1152 l 7 1190 "},"C":{"x_min":0,"x_max":781.984375,"ha":1141,"o":"m 436 1193 q 767 663 661 1193 l 781 573 l 771 539 l 746 539 q 692 695 714 539 q 600 983 649 878 q 444 1123 520 1123 l 420 1123 q 186 906 314 1123 q 67 455 67 674 q 271 75 67 170 q 442 43 345 43 l 472 43 q 756 92 581 43 l 781 68 q 550 -21 781 16 l 453 -27 q 33 240 142 -27 q 0 444 0 347 l 0 461 q 215 1069 0 784 q 436 1193 326 1193 "},"L":{"x_min":0,"x_max":529.015625,"ha":765,"o":"m 7 1193 l 63 1193 l 70 1155 l 70 43 l 484 43 l 529 37 l 529 -19 l 491 -27 l 43 -27 q 0 16 0 -27 l 0 1155 l 7 1193 "},"f":{"x_min":0,"x_max":484.921875,"ha":732,"o":"m 115 1193 l 446 1193 l 484 1186 l 484 1130 l 446 1123 l 143 1123 l 143 615 l 406 615 l 446 576 l 403 548 l 143 548 l 143 10 l 135 -27 l 80 -27 l 72 10 l 72 548 l 39 548 l 0 587 l 42 615 l 72 615 l 72 1150 q 115 1193 72 1193 "},"i":{"x_min":0,"x_max":70.53125,"ha":446,"o":"m 7 1190 l 63 1190 l 70 1152 l 70 10 l 63 -27 l 7 -27 l 0 10 l 0 1152 l 7 1190 "},"A":{"x_min":0,"x_max":880.328125,"ha":1259,"o":"m 408 1199 l 588 623 l 725 623 l 763 616 l 763 584 q 719 553 752 553 l 609 553 l 880 -338 l 858 -360 l 844 -360 q 783 -243 811 -360 l 537 553 l 258 553 q 215 585 223 553 l 215 616 l 252 623 l 521 623 l 521 595 q 368 1104 371 1098 l 400 1104 l 65 -6 l 50 -21 l 25 -21 l 0 3 l 354 1183 l 369 1199 l 408 1199 "},"n":{"x_min":0,"x_max":531.734375,"ha":1054,"o":"m 6 1190 l 48 1190 q 375 400 70 1171 l 506 78 l 463 78 l 463 1152 l 471 1190 l 524 1190 l 531 1152 l 531 10 l 524 -27 l 472 -27 l 27 1082 l 70 1082 l 70 10 l 63 -27 l 6 -27 l 0 16 l 0 1146 l 6 1190 "},"O":{"x_min":0,"x_max":803.015625,"ha":1209,"o":"m 434 1196 q 764 653 665 1196 q 803 187 803 409 q 747 20 803 48 q 453 -27 571 -27 q 16 303 105 -27 q 0 455 0 397 q 181 1027 0 747 q 434 1196 308 1196 m 70 455 l 70 450 q 271 75 70 171 q 444 43 347 43 l 458 43 q 720 86 591 43 q 732 165 732 96 l 732 208 q 628 915 732 611 q 444 1125 540 1125 l 420 1125 q 165 866 304 1125 q 70 455 70 655 "},"X":{"x_min":0,"x_max":554.78125,"ha":916,"o":"m 23 1190 l 58 1190 q 271 685 80 1171 q 263 642 293 631 l 485 1190 l 539 1190 l 539 1185 l 554 1185 q 314 575 315 586 l 314 580 l 543 8 l 531 -27 l 482 -27 q 286 510 263 530 l 69 -27 l 33 -27 l 31 -24 l 0 -24 l 238 583 l 10 1155 l 23 1190 "},"P":{"x_min":0,"x_max":377.09375,"ha":760,"o":"m 84 1196 q 368 988 301 1196 l 377 924 q 118 558 377 711 l 70 538 l 70 10 l 63 -27 l 31 -27 q 0 16 0 -16 l 0 1147 q 81 1196 0 1196 l 84 1196 m 70 1136 l 70 602 l 43 602 q 284 817 217 672 q 306 922 306 866 q 128 1123 306 1084 l 88 1125 l 60 1125 l 70 1136 "},"m":{"x_min":0,"x_max":531.734375,"ha":1077,"o":"m 7 1190 l 62 1190 l 284 249 l 254 249 q 299 472 248 244 l 469 1190 l 524 1190 l 531 1152 l 531 10 l 524 -27 l 468 -27 l 461 10 l 461 1047 q 452 815 501 1047 l 293 146 l 263 146 q 141 563 235 146 l 25 1047 l 70 1047 l 70 10 l 63 -27 l 7 -27 l 0 10 l 0 1152 l 7 1190 "},"l":{"x_min":0,"x_max":529.015625,"ha":765,"o":"m 7 1193 l 63 1193 l 70 1155 l 70 43 l 484 43 l 529 37 l 529 -19 l 491 -27 l 43 -27 q 0 16 0 -27 l 0 1155 l 7 1193 "},"p":{"x_min":0,"x_max":377.09375,"ha":760,"o":"m 84 1196 q 368 988 301 1196 l 377 924 q 118 558 377 711 l 70 538 l 70 10 l 63 -27 l 31 -27 q 0 16 0 -16 l 0 1147 q 81 1196 0 1196 l 84 1196 m 70 1136 l 70 602 l 43 602 q 284 817 217 672 q 306 922 306 866 q 128 1123 306 1084 l 88 1125 l 60 1125 l 70 1136 "},"R":{"x_min":0,"x_max":523.59375,"ha":870,"o":"m 81 1193 q 365 985 298 1193 l 374 921 q 275 678 374 796 l 523 10 l 523 -27 l 475 -27 q 352 280 451 3 l 219 625 q 64 532 163 579 q 67 550 67 532 l 67 10 l 60 -27 l 21 -27 l 0 -6 l 0 1147 q 70 1193 0 1193 l 81 1193 m 67 1133 l 67 599 l 37 599 q 219 729 159 647 q 274 796 233 729 q 303 925 303 859 q 143 1118 303 1068 l 93 1123 l 57 1123 l 67 1133 "},"o":{"x_min":0,"x_max":803.015625,"ha":1209,"o":"m 434 1196 q 764 653 665 1196 q 803 187 803 409 q 747 20 803 48 q 453 -27 571 -27 q 16 303 105 -27 q 0 455 0 397 q 181 1027 0 747 q 434 1196 308 1196 m 70 455 l 70 450 q 271 75 70 171 q 444 43 347 43 l 458 43 q 720 86 591 43 q 732 165 732 96 l 732 208 q 628 915 732 611 q 444 1125 540 1125 l 420 1125 q 165 866 304 1125 q 70 455 70 655 "}}}
